<?xml version="1.0" encoding="iso-8859-1"?>
<!-- Uploaded to: SVG Repo, www.svgrepo.com, Generator: SVG Repo Mixer Tools -->
<svg fill="#000000" height="800px" width="800px" version="1.1" id="Layer_1" xmlns="http://www.w3.org/2000/svg" xmlns:xlink="http://www.w3.org/1999/xlink" 
	 viewBox="0 0 512.154 512.154" xml:space="preserve">
<g transform="translate(1 1)">
	<g>
		<g>
			<path d="M502.544,220.944h-8.533V101.477l15.172-45.517c1.094-1.315,1.751-3.033,1.867-5.041
				c0.134-0.641,0.134-1.281,0.027-1.922V7.61c0-5.12-3.413-8.533-8.533-8.533H468.41c-5.12,0-8.533,3.413-8.533,8.533v34.133h-25.6
				V7.61c0-5.12-3.413-8.533-8.533-8.533H391.61c-5.12,0-8.533,3.413-8.533,8.533v34.133h-25.6V7.61c0-5.12-3.413-8.533-8.533-8.533
				H314.81c-5.12,0-8.533,3.413-8.533,8.533v41.387c-0.107,0.641-0.107,1.281,0.027,1.921c0.116,2.008,0.773,3.727,1.867,5.042
				l15.172,45.517l0,0v119.467h-8.533c-5.12,0-8.533,3.413-8.533,8.533v34.133h-25.6v-34.133c0-5.12-3.413-8.533-8.533-8.533H238.01
				c-5.12,0-8.533,3.413-8.533,8.533v34.133h-25.6v-34.133c0-5.12-3.413-8.533-8.533-8.533h-8.533V101.477l0,0l15.172-45.517
				c1.094-1.315,1.751-3.034,1.867-5.042c0.134-0.641,0.134-1.281,0.027-1.921V7.61c0-5.12-3.413-8.533-8.533-8.533H161.21
				c-5.12,0-8.533,3.413-8.533,8.533v34.133h-25.6V7.61c0-5.12-3.413-8.533-8.533-8.533H84.41c-5.12,0-8.533,3.413-8.533,8.533
				v34.133h-25.6V7.61c0-5.12-3.413-8.533-8.533-8.533H7.61c-5.12,0-8.533,3.413-8.533,8.533v41.387
				c-0.107,0.641-0.107,1.281,0.027,1.921c0.116,2.008,0.773,3.727,1.867,5.042l15.172,45.517l0,0v119.467H7.61
				c-5.12,0-8.533,3.413-8.533,8.533v41.493c-0.118,0.766-0.099,1.565,0.079,2.414c0.175,1.513,0.671,2.843,1.437,3.939
				l24.084,64.225v160.996c0,5.12,3.413,8.533,8.533,8.533h170.667h34.133h34.133h34.133h170.667c5.12,0,8.533-3.413,8.533-8.533
				V340.695l23.482-62.619c1.347-1.477,2.118-3.51,2.118-5.932v-42.667C511.077,224.357,507.664,220.944,502.544,220.944z
				 M494.01,238.01v25.6h-17.067v-25.6h8.533H494.01z M326.757,58.81h22.187h42.667h34.133h42.667h22.187l-11.093,34.133H337.85
				L326.757,58.81z M476.944,16.144h17.067v25.6h-17.067V16.144z M400.144,16.144h17.067v25.6h-17.067V16.144z M323.344,16.144
				h17.067v25.6h-17.067V16.144z M340.41,110.01h136.533v110.933h-8.533c-5.12,0-8.533,3.413-8.533,8.533v34.133h-25.6v-34.133
				c0-5.12-3.413-8.533-8.533-8.533H391.61c-5.12,0-8.533,3.413-8.533,8.533v34.133h-25.6v-34.133c0-5.12-3.413-8.533-8.533-8.533
				h-8.533V110.01z M417.21,263.61h-17.067v-25.6h17.067V263.61z M323.344,238.01h8.533h8.533v25.6h-17.067V238.01z M246.544,238.01
				h17.067v25.6h-17.067V238.01z M186.81,238.01v25.6h-17.067v-25.6h8.533H186.81z M19.557,58.81h22.187H84.41h34.133h42.667h22.187
				l-11.093,34.133H30.65L19.557,58.81z M169.744,16.144h17.067v25.6h-17.067V16.144z M92.944,16.144h17.067v25.6H92.944V16.144z
				 M16.144,16.144H33.21v25.6H16.144V16.144z M33.21,110.01h136.533v110.933h-8.533c-5.12,0-8.533,3.413-8.533,8.533v34.133h-25.6
				v-34.133c0-5.12-3.413-8.533-8.533-8.533H84.41c-5.12,0-8.533,3.413-8.533,8.533v34.133h-25.6v-34.133
				c0-5.12-3.413-8.533-8.533-8.533H33.21V110.01z M110.01,263.61H92.944v-25.6h17.067V263.61z M16.144,238.01h8.533h8.533v25.6
				H16.144V238.01z M246.544,494.01v-59.733c0-5.12,3.413-8.533,8.533-8.533c5.12,0,8.533,3.413,8.533,8.533v59.733H246.544z
				 M280.677,494.01v-59.733c0-14.507-11.093-25.6-25.6-25.6c-14.507,0-25.6,11.093-25.6,25.6v59.733H212.41v-59.733
				c0-23.893,18.773-42.667,42.667-42.667c23.893,0,42.667,18.773,42.667,42.667v59.733H280.677z M468.41,494.01h-153.6v-59.733
				c0-33.28-26.453-59.733-59.733-59.733c-33.28,0-59.733,26.453-59.733,59.733v59.733h-153.6V348.944H468.41V494.01z
				 M470.97,331.877H39.184l-19.627-51.2h22.187H84.41h34.133h42.667h34.133h42.667h34.133h42.667h34.133h42.667h34.133h42.667
				h21.333L470.97,331.877z"/>
			<path d="M220.944,297.744h-68.267c-5.12,0-8.533,3.413-8.533,8.533s3.413,8.533,8.533,8.533h68.267
				c5.12,0,8.533-3.413,8.533-8.533S226.064,297.744,220.944,297.744z"/>
			<path d="M357.477,297.744H289.21c-5.12,0-8.533,3.413-8.533,8.533s3.413,8.533,8.533,8.533h68.267
				c5.12,0,8.533-3.413,8.533-8.533S362.597,297.744,357.477,297.744z"/>
			<path d="M255.077,297.744c-5.12,0-8.533,3.413-8.533,8.533s3.413,8.533,8.533,8.533c5.12,0,8.533-3.413,8.533-8.533
				S260.197,297.744,255.077,297.744z"/>
			<path d="M442.81,297.744h-17.067c-5.12,0-8.533,3.413-8.533,8.533s3.413,8.533,8.533,8.533h17.067
				c5.12,0,8.533-3.413,8.533-8.533S447.93,297.744,442.81,297.744z"/>
			<path d="M391.61,297.744c-5.12,0-8.533,3.413-8.533,8.533s3.413,8.533,8.533,8.533c5.12,0,8.533-3.413,8.533-8.533
				S396.73,297.744,391.61,297.744z"/>
			<path d="M67.344,391.61H84.41c5.12,0,8.533-3.413,8.533-8.533s-3.413-8.533-8.533-8.533H67.344c-5.12,0-8.533,3.413-8.533,8.533
				S62.224,391.61,67.344,391.61z"/>
			<path d="M152.677,391.61h8.533c5.12,0,8.533-3.413,8.533-8.533s-3.413-8.533-8.533-8.533h-8.533c-5.12,0-8.533,3.413-8.533,8.533
				S147.557,391.61,152.677,391.61z"/>
			<path d="M118.544,391.61c5.12,0,8.533-3.413,8.533-8.533s-3.413-8.533-8.533-8.533s-8.533,3.413-8.533,8.533
				S113.424,391.61,118.544,391.61z"/>
			<path d="M67.344,468.41h51.2c5.12,0,8.533-3.413,8.533-8.533c0-5.12-3.413-8.533-8.533-8.533h-51.2
				c-5.12,0-8.533,3.413-8.533,8.533C58.81,464.997,62.224,468.41,67.344,468.41z"/>
			<path d="M152.677,468.41h8.533c5.12,0,8.533-3.413,8.533-8.533c0-5.12-3.413-8.533-8.533-8.533h-8.533
				c-5.12,0-8.533,3.413-8.533,8.533C144.144,464.997,147.557,468.41,152.677,468.41z"/>
			<path d="M391.61,391.61h51.2c5.12,0,8.533-3.413,8.533-8.533s-3.413-8.533-8.533-8.533h-51.2c-5.12,0-8.533,3.413-8.533,8.533
				S386.49,391.61,391.61,391.61z"/>
			<path d="M348.944,391.61h8.533c5.12,0,8.533-3.413,8.533-8.533s-3.413-8.533-8.533-8.533h-8.533c-5.12,0-8.533,3.413-8.533,8.533
				S343.824,391.61,348.944,391.61z"/>
			<path d="M348.944,468.41h8.533c5.12,0,8.533-3.413,8.533-8.533c0-5.12-3.413-8.533-8.533-8.533h-8.533
				c-5.12,0-8.533,3.413-8.533,8.533C340.41,464.997,343.824,468.41,348.944,468.41z"/>
			<path d="M442.81,451.344h-17.067c-5.12,0-8.533,3.413-8.533,8.533c0,5.12,3.413,8.533,8.533,8.533h17.067
				c5.12,0,8.533-3.413,8.533-8.533C451.344,454.757,447.93,451.344,442.81,451.344z"/>
			<path d="M391.61,468.41c5.12,0,8.533-3.413,8.533-8.533c0-5.12-3.413-8.533-8.533-8.533c-5.12,0-8.533,3.413-8.533,8.533
				C383.077,464.997,386.49,468.41,391.61,468.41z"/>
			<path d="M84.41,297.744H67.344c-5.12,0-8.533,3.413-8.533,8.533s3.413,8.533,8.533,8.533H84.41c5.12,0,8.533-3.413,8.533-8.533
				S89.53,297.744,84.41,297.744z"/>
			<path d="M118.544,297.744c-5.12,0-8.533,3.413-8.533,8.533s3.413,8.533,8.533,8.533s8.533-3.413,8.533-8.533
				S123.664,297.744,118.544,297.744z"/>
			<path d="M84.41,203.877h34.133c5.12,0,8.533-3.413,8.533-8.533v-42.667c0-14.507-11.093-25.6-25.6-25.6
				c-14.507,0-25.6,11.093-25.6,25.6v42.667C75.877,200.464,79.29,203.877,84.41,203.877z M92.944,152.677
				c0-5.12,3.413-8.533,8.533-8.533s8.533,3.413,8.533,8.533v34.133H92.944V152.677z"/>
			<path d="M391.61,203.877h34.133c5.12,0,8.533-3.413,8.533-8.533v-42.667c0-14.507-11.093-25.6-25.6-25.6
				c-14.507,0-25.6,11.093-25.6,25.6v42.667C383.077,200.464,386.49,203.877,391.61,203.877z M400.144,152.677
				c0-5.12,3.413-8.533,8.533-8.533s8.533,3.413,8.533,8.533v34.133h-17.067V152.677z"/>
		</g>
	</g>
</g>
</svg>